<svg width="1969.0px" height="1969.0px" viewBox="0 0 1969.0 1969.0" xmlns="http://www.w3.org/2000/svg" version="1.1">
<path d="
M 1614.0 1449.0 L 1620.0 1450.0 L 1624.0 1455.0 L 1623.0 1465.0 L 1616.0 1470.0 L 1610.0 1469.0 L 1606.0 1464.0 L 1608.0 1454.0 z 
M 440.0 1358.0 L 440.0 1366.0 L 445.0 1377.0 L 462.0 1390.0 L 508.0 1391.0 L 529.0 1382.0 L 538.0 1373.0 L 536.0 1356.0 L 506.0 1331.0 L 474.0 1329.0 L 454.0 1341.0 z 
M 532.0 1165.0 L 532.0 1220.0 L 538.0 1229.0 L 544.0 1257.0 L 555.0 1282.0 L 585.0 1313.0 L 608.0 1324.0 L 649.0 1329.0 L 687.0 1313.0 L 720.0 1284.0 L 732.0 1258.0 L 732.0 1245.0 L 738.0 1236.0 L 739.0 1191.0 L 734.0 1180.0 L 720.0 1186.0 L 706.0 1184.0 L 693.0 1172.0 L 692.0 1160.0 L 688.0 1156.0 L 541.0 1156.0 z 
M 1078.0 1159.0 L 1077.0 1224.0 L 1083.0 1232.0 L 1090.0 1263.0 L 1131.0 1306.0 L 1138.0 1321.0 L 1148.0 1321.0 L 1161.0 1327.0 L 1182.0 1326.0 L 1187.0 1331.0 L 1186.0 1361.0 L 1172.0 1382.0 L 1162.0 1383.0 L 1158.0 1387.0 L 1162.0 1395.0 L 1176.0 1394.0 L 1190.0 1383.0 L 1205.0 1357.0 L 1211.0 1358.0 L 1230.0 1381.0 L 1241.0 1382.0 L 1262.0 1395.0 L 1309.0 1392.0 L 1336.0 1368.0 L 1343.0 1359.0 L 1341.0 1349.0 L 1322.0 1329.0 L 1303.0 1321.0 L 1277.0 1322.0 L 1269.0 1317.0 L 1263.0 1317.0 L 1228.0 1330.0 L 1208.0 1353.0 L 1202.0 1352.0 L 1199.0 1348.0 L 1200.0 1334.0 L 1195.0 1327.0 L 1197.0 1318.0 L 1239.0 1301.0 L 1247.0 1293.0 L 1254.0 1291.0 L 1271.0 1269.0 L 1289.0 1228.0 L 1289.0 1214.0 L 1299.0 1205.0 L 1299.0 1195.0 L 1292.0 1183.0 L 1279.0 1187.0 L 1261.0 1185.0 L 1253.0 1177.0 L 1249.0 1168.0 L 1249.0 1157.0 L 1244.0 1152.0 L 1127.0 1151.0 L 1088.0 1147.0 z 
M 1404.0 1105.0 L 1410.0 1106.0 L 1414.0 1111.0 L 1413.0 1117.0 L 1408.0 1121.0 L 1402.0 1120.0 L 1398.0 1115.0 L 1399.0 1109.0 z 
M 288.0 1099.0 L 301.0 1104.0 L 305.0 1109.0 L 300.0 1127.0 L 294.0 1133.0 L 288.0 1132.0 L 283.0 1125.0 L 282.0 1105.0 z 
M 1050.0 1096.0 L 1057.0 1103.0 L 1056.0 1113.0 L 1051.0 1120.0 L 1049.0 1131.0 L 1039.0 1136.0 L 1033.0 1130.0 L 1032.0 1105.0 L 1037.0 1098.0 z 
M 235.0 1018.0 L 226.0 1036.0 L 228.0 1048.0 L 223.0 1055.0 L 224.0 1064.0 L 216.0 1072.0 L 218.0 1083.0 L 212.0 1090.0 L 211.0 1101.0 L 206.0 1106.0 L 207.0 1116.0 L 202.0 1123.0 L 201.0 1132.0 L 192.0 1141.0 L 182.0 1172.0 L 182.0 1183.0 L 175.0 1192.0 L 170.0 1218.0 L 164.0 1227.0 L 163.0 1251.0 L 153.0 1260.0 L 141.0 1299.0 L 126.0 1334.0 L 123.0 1354.0 L 118.0 1362.0 L 107.0 1370.0 L 105.0 1382.0 L 94.0 1399.0 L 70.0 1424.0 L 59.0 1429.0 L 38.0 1450.0 L 37.0 1456.0 L 41.0 1460.0 L 50.0 1460.0 L 68.0 1454.0 L 75.0 1448.0 L 83.0 1448.0 L 97.0 1442.0 L 103.0 1434.0 L 113.0 1429.0 L 123.0 1430.0 L 131.0 1427.0 L 158.0 1406.0 L 167.0 1406.0 L 177.0 1392.0 L 193.0 1388.0 L 203.0 1371.0 L 209.0 1367.0 L 218.0 1367.0 L 227.0 1360.0 L 232.0 1349.0 L 272.0 1308.0 L 288.0 1303.0 L 293.0 1308.0 L 292.0 1314.0 L 252.0 1354.0 L 253.0 1370.0 L 248.0 1377.0 L 250.0 1401.0 L 259.0 1410.0 L 254.0 1428.0 L 262.0 1439.0 L 261.0 1451.0 L 269.0 1460.0 L 275.0 1480.0 L 307.0 1518.0 L 331.0 1536.0 L 340.0 1538.0 L 345.0 1545.0 L 365.0 1554.0 L 374.0 1554.0 L 382.0 1561.0 L 390.0 1561.0 L 399.0 1567.0 L 409.0 1567.0 L 415.0 1571.0 L 427.0 1569.0 L 436.0 1578.0 L 449.0 1578.0 L 466.0 1583.0 L 471.0 1573.0 L 465.0 1567.0 L 464.0 1558.0 L 457.0 1551.0 L 452.0 1539.0 L 452.0 1530.0 L 447.0 1523.0 L 442.0 1500.0 L 435.0 1488.0 L 435.0 1481.0 L 428.0 1473.0 L 429.0 1463.0 L 414.0 1403.0 L 405.0 1394.0 L 408.0 1380.0 L 400.0 1371.0 L 402.0 1356.0 L 395.0 1326.0 L 383.0 1310.0 L 373.0 1310.0 L 358.0 1302.0 L 342.0 1277.0 L 332.0 1273.0 L 318.0 1236.0 L 309.0 1228.0 L 306.0 1214.0 L 311.0 1208.0 L 303.0 1201.0 L 303.0 1185.0 L 297.0 1180.0 L 296.0 1167.0 L 286.0 1157.0 L 291.0 1140.0 L 295.0 1137.0 L 303.0 1140.0 L 305.0 1155.0 L 314.0 1165.0 L 310.0 1182.0 L 320.0 1189.0 L 318.0 1203.0 L 314.0 1207.0 L 320.0 1210.0 L 337.0 1231.0 L 347.0 1254.0 L 349.0 1270.0 L 365.0 1271.0 L 369.0 1268.0 L 370.0 1226.0 L 375.0 1219.0 L 375.0 1161.0 L 370.0 1154.0 L 370.0 1143.0 L 380.0 1131.0 L 386.0 1105.0 L 381.0 1086.0 L 392.0 1077.0 L 390.0 1066.0 L 396.0 1058.0 L 407.0 1021.0 L 404.0 1007.0 L 400.0 1003.0 L 376.0 1007.0 L 273.0 1015.0 L 265.0 1019.0 z 
M 1633.0 982.0 L 1649.0 999.0 L 1644.0 1020.0 L 1653.0 1030.0 L 1649.0 1049.0 L 1653.0 1062.0 L 1660.0 1068.0 L 1660.0 1074.0 L 1651.0 1086.0 L 1665.0 1105.0 L 1665.0 1114.0 L 1660.0 1121.0 L 1662.0 1141.0 L 1671.0 1151.0 L 1671.0 1166.0 L 1665.0 1176.0 L 1665.0 1311.0 L 1670.0 1318.0 L 1671.0 1332.0 L 1661.0 1341.0 L 1660.0 1352.0 L 1664.0 1362.0 L 1655.0 1369.0 L 1657.0 1383.0 L 1650.0 1389.0 L 1650.0 1398.0 L 1644.0 1404.0 L 1644.0 1414.0 L 1638.0 1421.0 L 1634.0 1433.0 L 1626.0 1436.0 L 1621.0 1431.0 L 1620.0 1418.0 L 1626.0 1406.0 L 1634.0 1401.0 L 1634.0 1391.0 L 1640.0 1385.0 L 1639.0 1371.0 L 1645.0 1365.0 L 1646.0 1352.0 L 1641.0 1340.0 L 1650.0 1331.0 L 1652.0 1311.0 L 1646.0 1300.0 L 1646.0 1188.0 L 1652.0 1177.0 L 1652.0 1161.0 L 1649.0 1147.0 L 1641.0 1137.0 L 1641.0 1130.0 L 1646.0 1123.0 L 1646.0 1111.0 L 1639.0 1096.0 L 1641.0 1088.0 L 1645.0 1085.0 L 1640.0 1080.0 L 1636.0 1061.0 L 1629.0 1055.0 L 1634.0 1037.0 L 1623.0 1022.0 L 1628.0 1005.0 L 1619.0 994.0 L 1623.0 985.0 z 
M 1290.0 968.0 L 1286.0 972.0 L 1288.0 980.0 L 1328.0 1019.0 L 1333.0 1033.0 L 1340.0 1040.0 L 1352.0 1044.0 L 1388.0 1080.0 L 1391.0 1093.0 L 1386.0 1098.0 L 1379.0 1097.0 L 1355.0 1074.0 L 1350.0 1074.0 L 1346.0 1078.0 L 1345.0 1086.0 L 1415.0 1161.0 L 1418.0 1186.0 L 1426.0 1190.0 L 1432.0 1178.0 L 1432.0 1149.0 L 1413.0 1129.0 L 1412.0 1123.0 L 1417.0 1118.0 L 1429.0 1120.0 L 1433.0 1116.0 L 1432.0 1096.0 L 1424.0 1082.0 L 1428.0 1051.0 L 1421.0 1046.0 L 1421.0 1030.0 L 1410.0 1019.0 L 1415.0 1002.0 L 1407.0 994.0 L 1409.0 978.0 L 1395.0 969.0 z 
M 1801.0 951.0 L 1810.0 955.0 L 1812.0 966.0 L 1809.0 970.0 L 1817.0 976.0 L 1817.0 983.0 L 1811.0 989.0 L 1802.0 985.0 L 1801.0 976.0 L 1804.0 972.0 L 1795.0 965.0 L 1795.0 957.0 z 
M 1784.0 916.0 L 1791.0 917.0 L 1800.0 930.0 L 1800.0 938.0 L 1794.0 944.0 L 1786.0 942.0 L 1781.0 936.0 L 1778.0 922.0 z 
M 644.0 897.0 L 617.0 889.0 L 582.0 873.0 L 576.0 873.0 L 569.0 878.0 L 529.0 965.0 L 517.0 1004.0 L 509.0 1018.0 L 514.0 1032.0 L 529.0 1034.0 L 621.0 922.0 L 633.0 922.0 L 645.0 944.0 L 651.0 945.0 L 655.0 941.0 L 651.0 905.0 z 
M 1298.0 1018.0 L 1224.0 940.0 L 1161.0 856.0 L 1150.0 848.0 L 1118.0 850.0 L 1110.0 859.0 L 1108.0 940.0 L 1103.0 964.0 L 1114.0 974.0 L 1115.0 980.0 L 1101.0 993.0 L 1098.0 1007.0 L 1093.0 1012.0 L 1087.0 1011.0 L 1080.0 1001.0 L 1083.0 984.0 L 1089.0 972.0 L 1088.0 966.0 L 1082.0 962.0 L 897.0 963.0 L 833.0 968.0 L 766.0 969.0 L 687.0 975.0 L 676.0 986.0 L 683.0 1001.0 L 682.0 1026.0 L 689.0 1038.0 L 705.0 1093.0 L 724.0 1134.0 L 730.0 1135.0 L 737.0 1127.0 L 748.0 1126.0 L 753.0 1121.0 L 756.0 1104.0 L 749.0 1097.0 L 746.0 1084.0 L 762.0 1032.0 L 767.0 1026.0 L 774.0 1025.0 L 783.0 1034.0 L 787.0 1053.0 L 797.0 1063.0 L 803.0 1081.0 L 814.0 1097.0 L 813.0 1106.0 L 818.0 1116.0 L 830.0 1128.0 L 831.0 1135.0 L 864.0 1169.0 L 880.0 1174.0 L 891.0 1190.0 L 902.0 1194.0 L 908.0 1202.0 L 919.0 1206.0 L 924.0 1213.0 L 936.0 1217.0 L 955.0 1232.0 L 992.0 1237.0 L 1005.0 1223.0 L 1018.0 1199.0 L 1020.0 1187.0 L 1037.0 1164.0 L 1047.0 1161.0 L 1054.0 1153.0 L 1059.0 1140.0 L 1071.0 1127.0 L 1071.0 1114.0 L 1062.0 1098.0 L 1062.0 1086.0 L 1066.0 1080.0 L 1077.0 1036.0 L 1077.0 1021.0 L 1085.0 1013.0 L 1091.0 1012.0 L 1096.0 1017.0 L 1096.0 1025.0 L 1100.0 1031.0 L 1112.0 1031.0 L 1116.0 1027.0 L 1117.0 1018.0 L 1132.0 986.0 L 1148.0 965.0 L 1158.0 965.0 L 1249.0 1027.0 L 1294.0 1027.0 L 1298.0 1023.0 z 
M 1747.0 819.0 L 1757.0 820.0 L 1766.0 817.0 L 1772.0 823.0 L 1772.0 830.0 L 1766.0 839.0 L 1766.0 851.0 L 1778.0 874.0 L 1778.0 881.0 L 1772.0 887.0 L 1767.0 887.0 L 1759.0 881.0 L 1748.0 859.0 L 1749.0 847.0 L 1741.0 829.0 L 1742.0 823.0 z 
M 1733.0 796.0 L 1739.0 797.0 L 1743.0 802.0 L 1743.0 808.0 L 1737.0 814.0 L 1731.0 813.0 L 1727.0 808.0 L 1727.0 802.0 z 
M 1716.0 766.0 L 1722.0 767.0 L 1730.0 780.0 L 1730.0 787.0 L 1724.0 793.0 L 1717.0 792.0 L 1709.0 781.0 L 1710.0 772.0 z 
M 637.0 763.0 L 608.0 800.0 L 585.0 846.0 L 600.0 858.0 L 635.0 871.0 L 643.0 871.0 L 647.0 867.0 L 645.0 767.0 z 
M 1688.0 724.0 L 1694.0 725.0 L 1710.0 746.0 L 1713.0 759.0 L 1707.0 765.0 L 1701.0 764.0 L 1682.0 741.0 L 1682.0 730.0 z 
M 1676.0 708.0 L 1682.0 709.0 L 1688.0 716.0 L 1687.0 722.0 L 1682.0 726.0 L 1675.0 725.0 L 1670.0 719.0 L 1671.0 712.0 z 
M 1640.0 669.0 L 1648.0 669.0 L 1663.0 685.0 L 1664.0 691.0 L 1660.0 696.0 L 1648.0 696.0 L 1637.0 684.0 L 1636.0 674.0 z 
M 1587.0 618.0 L 1595.0 618.0 L 1636.0 657.0 L 1637.0 663.0 L 1633.0 668.0 L 1619.0 668.0 L 1585.0 634.0 L 1583.0 623.0 z 
M 1527.0 577.0 L 1536.0 573.0 L 1543.0 582.0 L 1548.0 581.0 L 1574.0 601.0 L 1574.0 609.0 L 1569.0 613.0 L 1558.0 612.0 L 1541.0 599.0 L 1538.0 589.0 L 1533.0 590.0 L 1527.0 585.0 z 
M 1516.0 562.0 L 1523.0 563.0 L 1528.0 569.0 L 1527.0 575.0 L 1522.0 579.0 L 1515.0 578.0 L 1510.0 572.0 L 1511.0 566.0 z 
M 1472.0 547.0 L 1476.0 542.0 L 1483.0 541.0 L 1493.0 545.0 L 1499.0 556.0 L 1493.0 562.0 L 1486.0 562.0 L 1473.0 554.0 z 
M 1431.0 523.0 L 1435.0 518.0 L 1442.0 517.0 L 1448.0 523.0 L 1455.0 524.0 L 1459.0 533.0 L 1455.0 538.0 L 1447.0 539.0 L 1442.0 534.0 L 1435.0 533.0 z 
M 1340.0 482.0 L 1345.0 478.0 L 1352.0 478.0 L 1358.0 483.0 L 1359.0 489.0 L 1353.0 495.0 L 1346.0 495.0 L 1339.0 488.0 z 
M 288.0 827.0 L 298.0 830.0 L 322.0 790.0 L 370.0 723.0 L 380.0 705.0 L 381.0 685.0 L 385.0 682.0 L 402.0 682.0 L 459.0 619.0 L 515.0 571.0 L 557.0 541.0 L 650.0 496.0 L 656.0 496.0 L 694.0 479.0 L 703.0 479.0 L 712.0 473.0 L 721.0 473.0 L 728.0 468.0 L 740.0 467.0 L 748.0 462.0 L 760.0 461.0 L 768.0 456.0 L 778.0 456.0 L 788.0 451.0 L 806.0 450.0 L 813.0 445.0 L 833.0 445.0 L 844.0 439.0 L 866.0 441.0 L 876.0 434.0 L 892.0 433.0 L 906.0 437.0 L 915.0 429.0 L 955.0 428.0 L 959.0 420.0 L 941.0 411.0 L 861.0 387.0 L 775.0 365.0 L 718.0 354.0 L 629.0 342.0 L 493.0 331.0 L 424.0 331.0 L 414.0 335.0 L 404.0 346.0 L 399.0 391.0 L 392.0 618.0 L 387.0 623.0 L 375.0 617.0 L 363.0 618.0 L 273.0 657.0 L 254.0 671.0 L 258.0 707.0 z 
M 1827.0 358.0 L 1763.0 342.0 L 1700.0 331.0 L 1668.0 329.0 L 1663.0 326.0 L 1513.0 326.0 L 1386.0 342.0 L 1302.0 359.0 L 1218.0 388.0 L 1153.0 419.0 L 1156.0 427.0 L 1171.0 428.0 L 1181.0 435.0 L 1200.0 433.0 L 1210.0 439.0 L 1227.0 439.0 L 1236.0 444.0 L 1254.0 446.0 L 1278.0 456.0 L 1308.0 463.0 L 1317.0 472.0 L 1311.0 483.0 L 1314.0 491.0 L 1324.0 493.0 L 1331.0 502.0 L 1396.0 546.0 L 1436.0 583.0 L 1494.0 665.0 L 1529.0 723.0 L 1564.0 790.0 L 1604.0 895.0 L 1622.0 966.0 L 1621.0 972.0 L 1612.0 980.0 L 1434.0 972.0 L 1424.0 986.0 L 1426.0 998.0 L 1432.0 1004.0 L 1430.0 1018.0 L 1439.0 1028.0 L 1433.0 1049.0 L 1444.0 1058.0 L 1441.0 1077.0 L 1444.0 1088.0 L 1451.0 1096.0 L 1451.0 1108.0 L 1446.0 1115.0 L 1446.0 1168.0 L 1451.0 1175.0 L 1451.0 1186.0 L 1441.0 1200.0 L 1441.0 1208.0 L 1446.0 1219.0 L 1436.0 1228.0 L 1438.0 1240.0 L 1430.0 1248.0 L 1430.0 1257.0 L 1421.0 1275.0 L 1422.0 1286.0 L 1410.0 1307.0 L 1401.0 1313.0 L 1378.0 1347.0 L 1375.0 1361.0 L 1361.0 1369.0 L 1334.0 1397.0 L 1332.0 1405.0 L 1323.0 1414.0 L 1323.0 1418.0 L 1330.0 1425.0 L 1339.0 1426.0 L 1402.0 1405.0 L 1411.0 1394.0 L 1419.0 1391.0 L 1428.0 1393.0 L 1432.0 1398.0 L 1432.0 1410.0 L 1424.0 1421.0 L 1419.0 1442.0 L 1420.0 1455.0 L 1414.0 1462.0 L 1414.0 1471.0 L 1408.0 1480.0 L 1408.0 1488.0 L 1401.0 1497.0 L 1393.0 1522.0 L 1385.0 1528.0 L 1380.0 1544.0 L 1373.0 1549.0 L 1365.0 1564.0 L 1364.0 1572.0 L 1356.0 1578.0 L 1351.0 1587.0 L 1352.0 1593.0 L 1358.0 1597.0 L 1375.0 1596.0 L 1383.0 1602.0 L 1403.0 1599.0 L 1412.0 1591.0 L 1430.0 1595.0 L 1441.0 1585.0 L 1454.0 1588.0 L 1462.0 1581.0 L 1472.0 1582.0 L 1478.0 1575.0 L 1486.0 1574.0 L 1504.0 1562.0 L 1525.0 1556.0 L 1540.0 1547.0 L 1542.0 1536.0 L 1569.0 1508.0 L 1581.0 1502.0 L 1586.0 1496.0 L 1586.0 1485.0 L 1591.0 1476.0 L 1599.0 1472.0 L 1606.0 1473.0 L 1609.0 1481.0 L 1605.0 1493.0 L 1596.0 1499.0 L 1595.0 1512.0 L 1580.0 1522.0 L 1570.0 1538.0 L 1546.0 1553.0 L 1544.0 1563.0 L 1548.0 1567.0 L 1575.0 1565.0 L 1583.0 1557.0 L 1590.0 1557.0 L 1597.0 1562.0 L 1608.0 1562.0 L 1619.0 1559.0 L 1625.0 1553.0 L 1637.0 1555.0 L 1644.0 1546.0 L 1680.0 1527.0 L 1688.0 1516.0 L 1691.0 1504.0 L 1702.0 1498.0 L 1704.0 1485.0 L 1709.0 1476.0 L 1721.0 1470.0 L 1727.0 1471.0 L 1731.0 1476.0 L 1727.0 1490.0 L 1731.0 1504.0 L 1724.0 1512.0 L 1722.0 1530.0 L 1730.0 1538.0 L 1746.0 1536.0 L 1783.0 1499.0 L 1784.0 1489.0 L 1794.0 1479.0 L 1804.0 1475.0 L 1806.0 1463.0 L 1828.0 1425.0 L 1838.0 1389.0 L 1846.0 1381.0 L 1844.0 1369.0 L 1854.0 1358.0 L 1861.0 1322.0 L 1866.0 1261.0 L 1863.0 1256.0 L 1866.0 1247.0 L 1863.0 1201.0 L 1855.0 1193.0 L 1860.0 1181.0 L 1860.0 1172.0 L 1853.0 1153.0 L 1854.0 1140.0 L 1845.0 1129.0 L 1848.0 1116.0 L 1840.0 1105.0 L 1842.0 1093.0 L 1837.0 1084.0 L 1837.0 1075.0 L 1828.0 1066.0 L 1830.0 1053.0 L 1815.0 1004.0 L 1820.0 999.0 L 1836.0 1000.0 L 1921.0 898.0 L 1946.0 860.0 L 1950.0 846.0 L 1950.0 830.0 L 1936.0 812.0 L 1829.0 725.0 L 1816.0 717.0 L 1804.0 719.0 L 1799.0 714.0 L 1799.0 698.0 L 1805.0 685.0 L 1812.0 633.0 L 1816.0 626.0 L 1843.0 394.0 L 1840.0 370.0 z 
" fill="black" fill-rule="evenodd"/>
</svg>
