<svg width="1969.0px" height="1969.0px" viewBox="0 0 1969.0 1969.0" xmlns="http://www.w3.org/2000/svg" version="1.1">
<path d="
M 439.0 1358.0 L 448.0 1345.0 L 474.0 1328.0 L 506.0 1330.0 L 523.0 1341.0 L 537.0 1356.0 L 539.0 1373.0 L 529.0 1383.0 L 512.0 1391.0 L 464.0 1392.0 L 444.0 1377.0 L 439.0 1366.0 z 
M 1050.0 1098.0 L 1041.0 1098.0 L 1034.0 1105.0 L 1035.0 1130.0 L 1039.0 1134.0 L 1047.0 1131.0 L 1049.0 1120.0 L 1054.0 1113.0 L 1055.0 1103.0 z 
M 463.0 1104.0 L 464.0 1124.0 L 452.0 1144.0 L 457.0 1264.0 L 446.0 1294.0 L 425.0 1333.0 L 424.0 1371.0 L 436.0 1398.0 L 461.0 1425.0 L 492.0 1447.0 L 528.0 1465.0 L 607.0 1493.0 L 659.0 1504.0 L 681.0 1505.0 L 690.0 1509.0 L 835.0 1521.0 L 958.0 1521.0 L 1008.0 1516.0 L 1059.0 1515.0 L 1173.0 1498.0 L 1256.0 1471.0 L 1280.0 1455.0 L 1280.0 1451.0 L 1268.0 1437.0 L 1268.0 1430.0 L 1293.0 1405.0 L 1293.0 1400.0 L 1289.0 1396.0 L 1262.0 1396.0 L 1242.0 1384.0 L 1230.0 1382.0 L 1209.0 1357.0 L 1212.0 1347.0 L 1219.0 1338.0 L 1215.0 1330.0 L 1208.0 1331.0 L 1200.0 1340.0 L 1204.0 1358.0 L 1193.0 1381.0 L 1176.0 1395.0 L 1162.0 1396.0 L 1158.0 1393.0 L 1158.0 1385.0 L 1172.0 1381.0 L 1185.0 1361.0 L 1186.0 1331.0 L 1182.0 1327.0 L 1161.0 1328.0 L 1148.0 1322.0 L 1131.0 1327.0 L 1102.0 1301.0 L 1088.0 1284.0 L 1072.0 1255.0 L 1066.0 1222.0 L 1064.0 1157.0 L 1060.0 1153.0 L 1052.0 1157.0 L 1047.0 1168.0 L 1044.0 1199.0 L 1014.0 1238.0 L 998.0 1255.0 L 987.0 1261.0 L 976.0 1261.0 L 934.0 1238.0 L 870.0 1194.0 L 831.0 1161.0 L 786.0 1115.0 L 773.0 1097.0 L 767.0 1096.0 L 761.0 1100.0 L 755.0 1112.0 L 745.0 1147.0 L 737.0 1147.0 L 721.0 1133.0 L 711.0 1133.0 L 696.0 1146.0 L 693.0 1154.0 L 694.0 1172.0 L 711.0 1185.0 L 720.0 1185.0 L 730.0 1179.0 L 736.0 1163.0 L 740.0 1160.0 L 746.0 1161.0 L 751.0 1168.0 L 753.0 1206.0 L 749.0 1241.0 L 744.0 1261.0 L 731.0 1290.0 L 721.0 1303.0 L 693.0 1328.0 L 666.0 1340.0 L 631.0 1343.0 L 607.0 1340.0 L 574.0 1323.0 L 549.0 1296.0 L 533.0 1265.0 L 521.0 1224.0 L 519.0 1199.0 L 520.0 1141.0 L 529.0 1108.0 L 528.0 1100.0 L 524.0 1097.0 L 471.0 1096.0 z 
M 1304.0 1093.0 L 1300.0 1096.0 L 1299.0 1103.0 L 1306.0 1134.0 L 1305.0 1152.0 L 1297.0 1155.0 L 1282.0 1140.0 L 1267.0 1139.0 L 1257.0 1147.0 L 1250.0 1158.0 L 1251.0 1171.0 L 1263.0 1185.0 L 1282.0 1185.0 L 1297.0 1168.0 L 1303.0 1169.0 L 1306.0 1173.0 L 1306.0 1205.0 L 1300.0 1234.0 L 1283.0 1274.0 L 1260.0 1303.0 L 1258.0 1311.0 L 1277.0 1321.0 L 1303.0 1320.0 L 1316.0 1325.0 L 1345.0 1352.0 L 1351.0 1352.0 L 1369.0 1335.0 L 1392.0 1300.0 L 1414.0 1251.0 L 1418.0 1233.0 L 1416.0 1165.0 L 1350.0 1093.0 z 
M 1118.0 1018.0 L 1118.0 1023.0 L 1122.0 1027.0 L 1230.0 1026.0 L 1234.0 1022.0 L 1229.0 1013.0 L 1156.0 965.0 L 1150.0 965.0 L 1145.0 969.0 z 
M 633.0 923.0 L 621.0 923.0 L 571.0 981.0 L 539.0 1022.0 L 538.0 1028.0 L 542.0 1032.0 L 660.0 1032.0 L 665.0 1027.0 L 665.0 1013.0 L 651.0 998.0 L 651.0 993.0 L 658.0 983.0 L 654.0 959.0 L 648.0 953.0 z 
M 1621.0 966.0 L 1597.0 877.0 L 1574.0 815.0 L 1551.0 766.0 L 1483.0 650.0 L 1439.0 588.0 L 1413.0 561.0 L 1370.0 528.0 L 1288.0 476.0 L 1243.0 458.0 L 1154.0 441.0 L 1076.0 436.0 L 935.0 441.0 L 913.0 446.0 L 885.0 447.0 L 868.0 452.0 L 848.0 453.0 L 841.0 457.0 L 823.0 458.0 L 812.0 463.0 L 796.0 464.0 L 766.0 474.0 L 753.0 475.0 L 745.0 480.0 L 717.0 486.0 L 693.0 497.0 L 670.0 503.0 L 649.0 514.0 L 643.0 514.0 L 573.0 549.0 L 531.0 576.0 L 478.0 621.0 L 441.0 658.0 L 395.0 711.0 L 352.0 770.0 L 317.0 824.0 L 278.0 895.0 L 255.0 949.0 L 255.0 957.0 L 244.0 984.0 L 238.0 1011.0 L 243.0 1018.0 L 265.0 1018.0 L 273.0 1014.0 L 406.0 1002.0 L 413.0 997.0 L 425.0 970.0 L 437.0 952.0 L 447.0 943.0 L 454.0 944.0 L 461.0 953.0 L 459.0 980.0 L 468.0 996.0 L 494.0 995.0 L 503.0 987.0 L 537.0 905.0 L 554.0 873.0 L 553.0 866.0 L 546.0 858.0 L 517.0 844.0 L 513.0 835.0 L 518.0 830.0 L 526.0 830.0 L 558.0 841.0 L 564.0 841.0 L 571.0 835.0 L 600.0 783.0 L 644.0 726.0 L 644.0 711.0 L 649.0 700.0 L 650.0 680.0 L 660.0 648.0 L 661.0 633.0 L 669.0 625.0 L 681.0 630.0 L 682.0 640.0 L 672.0 669.0 L 671.0 687.0 L 666.0 697.0 L 665.0 721.0 L 660.0 740.0 L 660.0 802.0 L 666.0 878.0 L 697.0 902.0 L 696.0 908.0 L 692.0 911.0 L 675.0 908.0 L 670.0 913.0 L 672.0 951.0 L 677.0 969.0 L 682.0 975.0 L 897.0 962.0 L 1084.0 960.0 L 1088.0 953.0 L 1093.0 915.0 L 1093.0 863.0 L 1087.0 858.0 L 1077.0 858.0 L 1065.0 862.0 L 1036.0 863.0 L 1028.0 867.0 L 1012.0 868.0 L 1004.0 862.0 L 1005.0 856.0 L 1009.0 853.0 L 1037.0 846.0 L 1045.0 841.0 L 1057.0 840.0 L 1066.0 835.0 L 1076.0 835.0 L 1088.0 829.0 L 1093.0 823.0 L 1087.0 740.0 L 1083.0 732.0 L 1082.0 713.0 L 1057.0 655.0 L 1058.0 649.0 L 1062.0 646.0 L 1073.0 649.0 L 1081.0 658.0 L 1104.0 722.0 L 1105.0 748.0 L 1150.0 813.0 L 1186.0 812.0 L 1207.0 807.0 L 1280.0 804.0 L 1305.0 811.0 L 1306.0 817.0 L 1301.0 822.0 L 1281.0 824.0 L 1275.0 828.0 L 1231.0 835.0 L 1223.0 839.0 L 1197.0 841.0 L 1182.0 845.0 L 1178.0 849.0 L 1179.0 855.0 L 1223.0 913.0 L 1268.0 962.0 L 1283.0 963.0 L 1291.0 967.0 L 1395.0 968.0 L 1402.0 963.0 L 1398.0 953.0 L 1397.0 937.0 L 1392.0 928.0 L 1392.0 918.0 L 1387.0 908.0 L 1386.0 894.0 L 1381.0 885.0 L 1380.0 870.0 L 1375.0 862.0 L 1375.0 851.0 L 1370.0 843.0 L 1376.0 832.0 L 1383.0 831.0 L 1391.0 839.0 L 1397.0 859.0 L 1397.0 870.0 L 1402.0 878.0 L 1403.0 891.0 L 1408.0 902.0 L 1409.0 916.0 L 1413.0 922.0 L 1415.0 940.0 L 1419.0 947.0 L 1420.0 962.0 L 1428.0 971.0 L 1611.0 979.0 L 1620.0 972.0 z 
" fill="black" fill-rule="evenodd"/>
</svg>
