<svg width="1969.0px" height="1969.0px" viewBox="0 0 1969.0 1969.0" xmlns="http://www.w3.org/2000/svg" version="1.1">
<path d="
M 1595.0 1503.0 L 1596.0 1514.0 L 1590.0 1519.0 L 1582.0 1519.0 L 1574.0 1527.0 L 1570.0 1538.0 L 1562.0 1540.0 L 1549.0 1551.0 L 1541.0 1548.0 L 1541.0 1533.0 L 1567.0 1506.0 L 1578.0 1506.0 L 1586.0 1500.0 z 
M 1603.0 1471.0 L 1608.0 1476.0 L 1606.0 1491.0 L 1601.0 1496.0 L 1591.0 1498.0 L 1587.0 1495.0 L 1584.0 1484.0 L 1591.0 1472.0 z 
M 1614.0 1454.0 L 1620.0 1455.0 L 1624.0 1460.0 L 1623.0 1466.0 L 1619.0 1469.0 L 1614.0 1469.0 L 1609.0 1464.0 L 1609.0 1459.0 z 
M 1297.0 1422.0 L 1293.0 1430.0 L 1297.0 1434.0 L 1302.0 1434.0 L 1306.0 1426.0 L 1302.0 1422.0 z 
M 442.0 1359.0 L 447.0 1376.0 L 463.0 1388.0 L 507.0 1389.0 L 528.0 1380.0 L 536.0 1372.0 L 534.0 1357.0 L 505.0 1333.0 L 475.0 1331.0 L 455.0 1343.0 z 
M 1214.0 1350.0 L 1215.0 1360.0 L 1231.0 1379.0 L 1242.0 1380.0 L 1263.0 1393.0 L 1307.0 1390.0 L 1327.0 1374.0 L 1341.0 1358.0 L 1339.0 1350.0 L 1321.0 1331.0 L 1302.0 1323.0 L 1276.0 1324.0 L 1268.0 1319.0 L 1229.0 1332.0 z 
M 1659.0 1176.0 L 1664.0 1181.0 L 1662.0 1310.0 L 1672.0 1317.0 L 1673.0 1333.0 L 1668.0 1338.0 L 1658.0 1337.0 L 1658.0 1351.0 L 1666.0 1356.0 L 1667.0 1364.0 L 1659.0 1372.0 L 1661.0 1385.0 L 1654.0 1393.0 L 1654.0 1400.0 L 1648.0 1407.0 L 1648.0 1413.0 L 1638.0 1419.0 L 1632.0 1429.0 L 1626.0 1430.0 L 1619.0 1422.0 L 1618.0 1416.0 L 1629.0 1398.0 L 1630.0 1388.0 L 1637.0 1382.0 L 1637.0 1370.0 L 1648.0 1362.0 L 1649.0 1354.0 L 1640.0 1348.0 L 1639.0 1339.0 L 1644.0 1334.0 L 1655.0 1335.0 L 1656.0 1312.0 L 1649.0 1309.0 L 1644.0 1301.0 L 1644.0 1187.0 L 1648.0 1180.0 z 
M 1440.0 1168.0 L 1449.0 1170.0 L 1453.0 1175.0 L 1453.0 1186.0 L 1448.0 1191.0 L 1441.0 1191.0 L 1436.0 1186.0 L 1435.0 1173.0 z 
M 538.0 1166.0 L 537.0 1200.0 L 543.0 1216.0 L 543.0 1234.0 L 548.0 1241.0 L 549.0 1254.0 L 560.0 1272.0 L 568.0 1296.0 L 581.0 1309.0 L 601.0 1321.0 L 609.0 1321.0 L 616.0 1326.0 L 659.0 1326.0 L 682.0 1317.0 L 707.0 1296.0 L 709.0 1285.0 L 722.0 1266.0 L 722.0 1254.0 L 727.0 1247.0 L 727.0 1226.0 L 733.0 1218.0 L 733.0 1199.0 L 729.0 1195.0 L 701.0 1195.0 L 696.0 1185.0 L 685.0 1175.0 L 684.0 1166.0 L 680.0 1162.0 L 544.0 1161.0 z 
M 303.0 1160.0 L 312.0 1160.0 L 316.0 1163.0 L 315.0 1178.0 L 323.0 1186.0 L 322.0 1194.0 L 313.0 1203.0 L 305.0 1200.0 L 304.0 1189.0 L 298.0 1177.0 L 298.0 1165.0 z 
M 1083.0 1160.0 L 1082.0 1194.0 L 1089.0 1208.0 L 1088.0 1239.0 L 1100.0 1263.0 L 1104.0 1281.0 L 1128.0 1305.0 L 1127.0 1318.0 L 1130.0 1322.0 L 1136.0 1323.0 L 1147.0 1318.0 L 1162.0 1325.0 L 1183.0 1324.0 L 1193.0 1336.0 L 1197.0 1336.0 L 1201.0 1332.0 L 1200.0 1322.0 L 1203.0 1318.0 L 1233.0 1305.0 L 1255.0 1285.0 L 1257.0 1270.0 L 1267.0 1261.0 L 1279.0 1237.0 L 1279.0 1228.0 L 1284.0 1221.0 L 1284.0 1202.0 L 1280.0 1198.0 L 1260.0 1197.0 L 1256.0 1183.0 L 1242.0 1174.0 L 1241.0 1166.0 L 1237.0 1162.0 L 1224.0 1162.0 L 1217.0 1157.0 L 1089.0 1155.0 z 
M 1667.0 1143.0 L 1673.0 1150.0 L 1673.0 1167.0 L 1669.0 1173.0 L 1659.0 1176.0 L 1654.0 1171.0 L 1655.0 1148.0 L 1660.0 1143.0 z 
M 300.0 1144.0 L 303.0 1148.0 L 302.0 1160.0 L 298.0 1163.0 L 287.0 1162.0 L 284.0 1158.0 L 285.0 1149.0 L 294.0 1143.0 z 
M 1649.0 1122.0 L 1655.0 1123.0 L 1658.0 1127.0 L 1658.0 1139.0 L 1653.0 1144.0 L 1644.0 1143.0 L 1639.0 1138.0 L 1640.0 1128.0 z 
M 1435.0 1120.0 L 1441.0 1121.0 L 1445.0 1128.0 L 1444.0 1140.0 L 1439.0 1145.0 L 1433.0 1144.0 L 1422.0 1132.0 L 1425.0 1124.0 z 
M 301.0 1104.0 L 306.0 1109.0 L 305.0 1117.0 L 295.0 1124.0 L 289.0 1123.0 L 286.0 1119.0 L 288.0 1107.0 L 292.0 1104.0 z 
M 1662.0 1099.0 L 1667.0 1104.0 L 1667.0 1114.0 L 1663.0 1119.0 L 1653.0 1122.0 L 1648.0 1117.0 L 1648.0 1104.0 L 1653.0 1099.0 z 
M 1448.0 1090.0 L 1453.0 1095.0 L 1453.0 1108.0 L 1449.0 1113.0 L 1439.0 1116.0 L 1434.0 1111.0 L 1434.0 1096.0 L 1440.0 1090.0 z 
M 1656.0 1063.0 L 1661.0 1068.0 L 1660.0 1077.0 L 1651.0 1083.0 L 1645.0 1082.0 L 1642.0 1078.0 L 1643.0 1066.0 L 1647.0 1063.0 z 
M 788.0 1059.0 L 800.0 1062.0 L 816.0 1096.0 L 813.0 1106.0 L 809.0 1109.0 L 800.0 1105.0 L 783.0 1071.0 L 783.0 1064.0 z 
M 1434.0 1053.0 L 1442.0 1053.0 L 1447.0 1058.0 L 1446.0 1065.0 L 1438.0 1070.0 L 1432.0 1069.0 L 1429.0 1065.0 L 1429.0 1058.0 z 
M 1638.0 1043.0 L 1644.0 1044.0 L 1647.0 1048.0 L 1647.0 1056.0 L 1642.0 1061.0 L 1633.0 1060.0 L 1628.0 1055.0 L 1629.0 1049.0 z 
M 769.0 1027.0 L 776.0 1028.0 L 786.0 1036.0 L 786.0 1053.0 L 781.0 1058.0 L 764.0 1058.0 L 759.0 1053.0 L 762.0 1034.0 z 
M 1651.0 1025.0 L 1656.0 1030.0 L 1655.0 1036.0 L 1646.0 1042.0 L 1640.0 1041.0 L 1637.0 1037.0 L 1638.0 1028.0 L 1642.0 1025.0 z 
M 1428.0 1023.0 L 1436.0 1023.0 L 1441.0 1028.0 L 1440.0 1034.0 L 1432.0 1039.0 L 1426.0 1038.0 L 1423.0 1034.0 L 1423.0 1028.0 z 
M 233.0 1019.0 L 225.0 1034.0 L 231.0 1045.0 L 227.0 1066.0 L 220.0 1074.0 L 221.0 1084.0 L 216.0 1091.0 L 216.0 1100.0 L 210.0 1108.0 L 205.0 1130.0 L 191.0 1139.0 L 181.0 1171.0 L 183.0 1182.0 L 174.0 1191.0 L 169.0 1207.0 L 171.0 1220.0 L 167.0 1226.0 L 165.0 1252.0 L 151.0 1261.0 L 126.0 1332.0 L 126.0 1355.0 L 117.0 1366.0 L 106.0 1371.0 L 108.0 1383.0 L 92.0 1405.0 L 73.0 1425.0 L 59.0 1429.0 L 33.0 1454.0 L 33.0 1458.0 L 37.0 1462.0 L 49.0 1462.0 L 66.0 1456.0 L 75.0 1446.0 L 94.0 1445.0 L 99.0 1434.0 L 112.0 1427.0 L 125.0 1430.0 L 135.0 1426.0 L 144.0 1419.0 L 145.0 1412.0 L 156.0 1404.0 L 168.0 1406.0 L 172.0 1402.0 L 173.0 1393.0 L 179.0 1388.0 L 190.0 1389.0 L 194.0 1385.0 L 195.0 1376.0 L 206.0 1366.0 L 222.0 1366.0 L 228.0 1360.0 L 229.0 1350.0 L 269.0 1307.0 L 285.0 1304.0 L 290.0 1309.0 L 289.0 1315.0 L 251.0 1354.0 L 255.0 1371.0 L 247.0 1379.0 L 248.0 1399.0 L 261.0 1408.0 L 261.0 1418.0 L 254.0 1426.0 L 254.0 1430.0 L 266.0 1439.0 L 264.0 1450.0 L 272.0 1458.0 L 275.0 1467.0 L 274.0 1479.0 L 284.0 1486.0 L 286.0 1498.0 L 312.0 1524.0 L 331.0 1537.0 L 341.0 1538.0 L 357.0 1552.0 L 368.0 1554.0 L 377.0 1551.0 L 384.0 1556.0 L 393.0 1557.0 L 399.0 1564.0 L 410.0 1562.0 L 417.0 1567.0 L 428.0 1566.0 L 437.0 1580.0 L 449.0 1578.0 L 466.0 1585.0 L 472.0 1580.0 L 472.0 1573.0 L 462.0 1566.0 L 461.0 1559.0 L 454.0 1553.0 L 448.0 1540.0 L 448.0 1532.0 L 444.0 1526.0 L 447.0 1513.0 L 443.0 1498.0 L 432.0 1490.0 L 426.0 1476.0 L 429.0 1460.0 L 417.0 1418.0 L 416.0 1404.0 L 403.0 1397.0 L 403.0 1381.0 L 396.0 1373.0 L 397.0 1367.0 L 403.0 1361.0 L 398.0 1330.0 L 386.0 1321.0 L 381.0 1310.0 L 374.0 1310.0 L 367.0 1304.0 L 358.0 1302.0 L 343.0 1278.0 L 330.0 1274.0 L 326.0 1266.0 L 328.0 1253.0 L 321.0 1238.0 L 317.0 1234.0 L 309.0 1233.0 L 303.0 1220.0 L 304.0 1214.0 L 310.0 1208.0 L 316.0 1209.0 L 322.0 1217.0 L 331.0 1219.0 L 350.0 1253.0 L 348.0 1265.0 L 356.0 1269.0 L 364.0 1268.0 L 368.0 1264.0 L 368.0 1226.0 L 377.0 1217.0 L 377.0 1163.0 L 368.0 1154.0 L 368.0 1141.0 L 382.0 1131.0 L 387.0 1103.0 L 379.0 1095.0 L 379.0 1083.0 L 386.0 1075.0 L 387.0 1064.0 L 398.0 1057.0 L 407.0 1019.0 L 398.0 1006.0 L 274.0 1017.0 L 266.0 1021.0 z 
M 1086.0 992.0 L 1092.0 993.0 L 1095.0 997.0 L 1095.0 1002.0 L 1090.0 1007.0 L 1085.0 1007.0 L 1080.0 1002.0 L 1081.0 996.0 z 
M 445.0 989.0 L 432.0 1001.0 L 432.0 1017.0 L 437.0 1047.0 L 443.0 1133.0 L 451.0 1137.0 L 461.0 1123.0 L 460.0 1103.0 L 465.0 1095.0 L 466.0 1068.0 L 471.0 1063.0 L 484.0 1066.0 L 489.0 1060.0 L 494.0 1039.0 L 490.0 1022.0 L 494.0 1012.0 L 492.0 1002.0 L 488.0 998.0 L 473.0 999.0 L 465.0 1013.0 L 468.0 1026.0 L 465.0 1030.0 L 459.0 1031.0 L 451.0 1023.0 L 453.0 993.0 z 
M 1622.0 985.0 L 1632.0 985.0 L 1637.0 991.0 L 1646.0 992.0 L 1651.0 997.0 L 1650.0 1008.0 L 1642.0 1016.0 L 1642.0 1023.0 L 1637.0 1028.0 L 1627.0 1027.0 L 1622.0 1022.0 L 1623.0 1014.0 L 1631.0 1007.0 L 1627.0 999.0 L 1622.0 999.0 L 1617.0 994.0 L 1618.0 988.0 z 
M 645.0 894.0 L 604.0 881.0 L 582.0 870.0 L 575.0 870.0 L 567.0 876.0 L 548.0 913.0 L 538.0 942.0 L 521.0 976.0 L 516.0 998.0 L 510.0 1007.0 L 508.0 1029.0 L 514.0 1036.0 L 527.0 1036.0 L 540.0 1015.0 L 620.0 920.0 L 634.0 920.0 L 649.0 945.0 L 655.0 946.0 L 659.0 942.0 L 659.0 935.0 L 668.0 925.0 L 668.0 920.0 L 655.0 913.0 L 652.0 901.0 z 
M 1306.0 1022.0 L 1233.0 946.0 L 1183.0 884.0 L 1164.0 855.0 L 1150.0 844.0 L 1116.0 848.0 L 1105.0 858.0 L 1106.0 927.0 L 1102.0 935.0 L 1092.0 940.0 L 1092.0 945.0 L 1100.0 954.0 L 1098.0 967.0 L 1106.0 974.0 L 1103.0 984.0 L 1099.0 987.0 L 1093.0 986.0 L 1090.0 982.0 L 1092.0 969.0 L 1081.0 964.0 L 898.0 965.0 L 834.0 970.0 L 767.0 971.0 L 688.0 977.0 L 674.0 988.0 L 675.0 1000.0 L 681.0 1010.0 L 679.0 1028.0 L 687.0 1038.0 L 694.0 1067.0 L 717.0 1126.0 L 736.0 1141.0 L 742.0 1142.0 L 746.0 1138.0 L 746.0 1130.0 L 759.0 1093.0 L 769.0 1090.0 L 795.0 1119.0 L 801.0 1120.0 L 806.0 1115.0 L 813.0 1114.0 L 820.0 1122.0 L 828.0 1124.0 L 832.0 1139.0 L 857.0 1165.0 L 866.0 1171.0 L 877.0 1170.0 L 883.0 1173.0 L 892.0 1192.0 L 903.0 1194.0 L 909.0 1204.0 L 920.0 1206.0 L 927.0 1216.0 L 937.0 1217.0 L 953.0 1234.0 L 964.0 1231.0 L 989.0 1234.0 L 996.0 1225.0 L 1005.0 1223.0 L 1020.0 1200.0 L 1020.0 1187.0 L 1044.0 1171.0 L 1049.0 1151.0 L 1038.0 1146.0 L 1032.0 1137.0 L 1033.0 1100.0 L 1040.0 1095.0 L 1055.0 1097.0 L 1058.0 1101.0 L 1058.0 1110.0 L 1052.0 1121.0 L 1051.0 1132.0 L 1055.0 1136.0 L 1068.0 1135.0 L 1074.0 1123.0 L 1074.0 1101.0 L 1067.0 1089.0 L 1079.0 1037.0 L 1076.0 1023.0 L 1079.0 1019.0 L 1086.0 1018.0 L 1097.0 1033.0 L 1111.0 1034.0 L 1115.0 1030.0 L 1114.0 1020.0 L 1123.0 1000.0 L 1142.0 968.0 L 1150.0 961.0 L 1158.0 961.0 L 1174.0 975.0 L 1240.0 1016.0 L 1252.0 1030.0 L 1302.0 1030.0 z 
M 1110.0 800.0 L 1106.0 804.0 L 1107.0 820.0 L 1115.0 828.0 L 1129.0 826.0 L 1134.0 820.0 L 1130.0 808.0 L 1122.0 798.0 z 
M 638.0 757.0 L 628.0 767.0 L 594.0 817.0 L 586.0 836.0 L 581.0 841.0 L 581.0 846.0 L 597.0 860.0 L 644.0 876.0 L 661.0 867.0 L 662.0 856.0 L 649.0 847.0 L 648.0 764.0 L 643.0 757.0 z 
M 1364.0 498.0 L 1355.0 503.0 L 1351.0 511.0 L 1397.0 544.0 L 1438.0 582.0 L 1496.0 664.0 L 1531.0 722.0 L 1566.0 789.0 L 1606.0 894.0 L 1624.0 971.0 L 1615.0 982.0 L 1435.0 974.0 L 1423.0 989.0 L 1423.0 995.0 L 1432.0 1004.0 L 1428.0 1020.0 L 1423.0 1025.0 L 1413.0 1025.0 L 1408.0 1020.0 L 1410.0 1004.0 L 1403.0 996.0 L 1404.0 989.0 L 1411.0 983.0 L 1407.0 975.0 L 1400.0 975.0 L 1394.0 971.0 L 1294.0 970.0 L 1290.0 974.0 L 1296.0 985.0 L 1333.0 1023.0 L 1332.0 1033.0 L 1337.0 1040.0 L 1355.0 1043.0 L 1390.0 1080.0 L 1389.0 1091.0 L 1381.0 1094.0 L 1334.0 1050.0 L 1326.0 1050.0 L 1322.0 1054.0 L 1321.0 1067.0 L 1329.0 1078.0 L 1329.0 1084.0 L 1334.0 1090.0 L 1350.0 1089.0 L 1387.0 1126.0 L 1419.0 1164.0 L 1420.0 1196.0 L 1424.0 1200.0 L 1435.0 1200.0 L 1448.0 1214.0 L 1448.0 1222.0 L 1441.0 1230.0 L 1442.0 1242.0 L 1436.0 1248.0 L 1434.0 1258.0 L 1422.0 1265.0 L 1421.0 1278.0 L 1424.0 1288.0 L 1413.0 1308.0 L 1403.0 1311.0 L 1392.0 1323.0 L 1387.0 1335.0 L 1376.0 1348.0 L 1377.0 1362.0 L 1358.0 1371.0 L 1335.0 1395.0 L 1334.0 1405.0 L 1328.0 1412.0 L 1328.0 1418.0 L 1335.0 1428.0 L 1378.0 1417.0 L 1403.0 1406.0 L 1407.0 1402.0 L 1408.0 1394.0 L 1419.0 1388.0 L 1426.0 1389.0 L 1434.0 1396.0 L 1434.0 1409.0 L 1423.0 1418.0 L 1418.0 1445.0 L 1423.0 1450.0 L 1424.0 1457.0 L 1418.0 1464.0 L 1418.0 1473.0 L 1412.0 1480.0 L 1412.0 1487.0 L 1400.0 1496.0 L 1400.0 1513.0 L 1396.0 1523.0 L 1386.0 1526.0 L 1381.0 1532.0 L 1381.0 1545.0 L 1374.0 1548.0 L 1367.0 1557.0 L 1366.0 1572.0 L 1354.0 1580.0 L 1351.0 1589.0 L 1359.0 1595.0 L 1376.0 1594.0 L 1385.0 1603.0 L 1399.0 1602.0 L 1411.0 1589.0 L 1418.0 1589.0 L 1426.0 1596.0 L 1431.0 1596.0 L 1440.0 1583.0 L 1452.0 1584.0 L 1460.0 1577.0 L 1470.0 1578.0 L 1476.0 1572.0 L 1485.0 1571.0 L 1512.0 1556.0 L 1525.0 1558.0 L 1535.0 1554.0 L 1544.0 1569.0 L 1573.0 1567.0 L 1582.0 1555.0 L 1592.0 1556.0 L 1599.0 1564.0 L 1614.0 1562.0 L 1623.0 1550.0 L 1635.0 1550.0 L 1641.0 1544.0 L 1658.0 1538.0 L 1668.0 1529.0 L 1680.0 1527.0 L 1688.0 1518.0 L 1689.0 1503.0 L 1704.0 1496.0 L 1703.0 1483.0 L 1711.0 1472.0 L 1726.0 1471.0 L 1731.0 1476.0 L 1726.0 1492.0 L 1733.0 1498.0 L 1734.0 1505.0 L 1722.0 1513.0 L 1720.0 1527.0 L 1730.0 1534.0 L 1749.0 1536.0 L 1782.0 1503.0 L 1781.0 1490.0 L 1785.0 1484.0 L 1805.0 1473.0 L 1803.0 1462.0 L 1825.0 1424.0 L 1835.0 1389.0 L 1842.0 1379.0 L 1841.0 1368.0 L 1855.0 1359.0 L 1866.0 1293.0 L 1867.0 1263.0 L 1861.0 1256.0 L 1867.0 1245.0 L 1865.0 1203.0 L 1853.0 1194.0 L 1854.0 1185.0 L 1861.0 1179.0 L 1858.0 1159.0 L 1852.0 1153.0 L 1855.0 1139.0 L 1842.0 1130.0 L 1845.0 1115.0 L 1837.0 1107.0 L 1841.0 1092.0 L 1834.0 1086.0 L 1833.0 1076.0 L 1825.0 1068.0 L 1830.0 1050.0 L 1810.0 991.0 L 1799.0 982.0 L 1799.0 974.0 L 1795.0 968.0 L 1794.0 946.0 L 1779.0 937.0 L 1777.0 924.0 L 1780.0 913.0 L 1771.0 889.0 L 1760.0 884.0 L 1751.0 871.0 L 1746.0 859.0 L 1750.0 849.0 L 1749.0 839.0 L 1738.0 818.0 L 1729.0 809.0 L 1727.0 797.0 L 1713.0 791.0 L 1708.0 782.0 L 1710.0 770.0 L 1706.0 766.0 L 1698.0 765.0 L 1681.0 742.0 L 1683.0 729.0 L 1672.0 722.0 L 1670.0 711.0 L 1659.0 699.0 L 1646.0 697.0 L 1637.0 687.0 L 1636.0 672.0 L 1631.0 668.0 L 1619.0 669.0 L 1585.0 636.0 L 1584.0 625.0 L 1569.0 611.0 L 1557.0 613.0 L 1541.0 603.0 L 1538.0 596.0 L 1528.0 589.0 L 1527.0 583.0 L 1523.0 579.0 L 1513.0 578.0 L 1509.0 569.0 L 1502.0 563.0 L 1477.0 559.0 L 1472.0 554.0 L 1472.0 548.0 L 1457.0 538.0 L 1444.0 540.0 L 1435.0 535.0 L 1432.0 527.0 L 1419.0 518.0 L 1399.0 514.0 L 1390.0 505.0 z 
" fill="black" fill-rule="evenodd"/>
</svg>
